HIERARCHY
ROOT Hips
{
	OFFSET 0.000000 0.000000 0.000000
	CHANNELS 6 Xposition Yposition Zposition Zrotation Yrotation Xrotation 
	JOINT LHipJoint
	{
		OFFSET 0.000000 0.000000 0.000000
		CHANNELS 3 Zrotation Yrotation Xrotation
		JOINT LeftUpLeg
		{
			OFFSET 1.363060 -1.794630 0.839290
			CHANNELS 3 Zrotation Yrotation Xrotation
			JOINT LeftLeg
			{
				OFFSET 2.448110 -6.726130 0.000000
				CHANNELS 3 Zrotation Yrotation Xrotation
				JOINT LeftFoot
				{
					OFFSET 2.562200 -7.039590 0.000000
					CHANNELS 3 Zrotation Yrotation Xrotation
					JOINT LeftToeBase
					{
						OFFSET 0.157640 -0.433110 2.322550
						CHANNELS 3 Zrotation Yrotation Xrotation
						End Site
						{
							OFFSET 0.000000 0.000000 0.000000
						}
					}
				}
			}
		}
	}
	JOINT RHipJoint
	{
		OFFSET 0.000000 0.000000 0.000000
		CHANNELS 3 Zrotation Yrotation Xrotation
		JOINT RightUpLeg
		{
			OFFSET -1.305520 -1.794630 0.839290
			CHANNELS 3 Zrotation Yrotation Xrotation
			JOINT RightLeg
			{
				OFFSET -2.542530 -6.985550 0.000000
				CHANNELS 3 Zrotation Yrotation Xrotation
				JOINT RightFoot
				{
					OFFSET -2.568260 -7.056230 0.000000
					CHANNELS 3 Zrotation Yrotation Xrotation
					JOINT RightToeBase
					{
						OFFSET -0.164730 -0.452590 2.363150
						CHANNELS 3 Zrotation Yrotation Xrotation
						End Site
						{
							OFFSET 0.000000 0.000000 0.000000
						}
					}
				}
			}
		}
	}
	JOINT LowerBack
	{
		OFFSET 0.000000 0.000000 0.000000
		CHANNELS 3 Zrotation Yrotation Xrotation
		JOINT Spine
		{
			OFFSET 0.028270 2.035590 -0.193380
			CHANNELS 3 Zrotation Yrotation Xrotation
			JOINT Spine1
			{
				OFFSET 0.056720 2.048850 -0.042750
				CHANNELS 3 Zrotation Yrotation Xrotation
				JOINT Neck
				{
					OFFSET 0.000000 0.000000 0.000000
					CHANNELS 3 Zrotation Yrotation Xrotation
					JOINT Neck1
					{
						OFFSET -0.054170 1.746240 0.172020
						CHANNELS 3 Zrotation Yrotation Xrotation
						JOINT Head
						{
							OFFSET 0.104070 1.761360 -0.123970
							CHANNELS 3 Zrotation Yrotation Xrotation
							End Site
							{
								OFFSET 0.000000 0.000000 0.000000
							}
						}
					}
				}
				JOINT LeftShoulder
				{
					OFFSET 0.000000 0.000000 0.000000
					CHANNELS 3 Zrotation Yrotation Xrotation
					JOINT LeftArm
					{
						OFFSET 3.362410 1.200890 -0.311210
						CHANNELS 3 Zrotation Yrotation Xrotation
						JOINT LeftForeArm
						{
							OFFSET 4.983000 -0.000000 -0.000000
							CHANNELS 3 Zrotation Yrotation Xrotation
							JOINT LeftHand
							{
								OFFSET 3.483560 -0.000000 -0.000000
								CHANNELS 3 Zrotation Yrotation Xrotation
								JOINT LeftFingerBase
								{
									OFFSET 0.000000 0.000000 0.000000
									CHANNELS 3 Zrotation Yrotation Xrotation
									JOINT LeftHandIndex1
									{
										OFFSET 0.715260 -0.000000 -0.000000
										CHANNELS 3 Zrotation Yrotation Xrotation
										End Site
										{
											OFFSET 0.000000 0.000000 0.000000
										}
									}
								}
								JOINT LThumb
								{
									OFFSET 0.000000 0.000000 0.000000
									CHANNELS 3 Zrotation Yrotation Xrotation
									End Site
									{
										OFFSET 0.000000 0.000000 0.000000
									}
								}
							}
						}
					}
				}
				JOINT RightShoulder
				{
					OFFSET 0.000000 0.000000 0.000000
					CHANNELS 3 Zrotation Yrotation Xrotation
					JOINT RightArm
					{
						OFFSET -3.136600 1.374050 -0.404650
						CHANNELS 3 Zrotation Yrotation Xrotation
						JOINT RightForeArm
						{
							OFFSET -5.241900 -0.000000 -0.000000
							CHANNELS 3 Zrotation Yrotation Xrotation
							JOINT RightHand
							{
								OFFSET -3.444170 -0.000000 -0.000000
								CHANNELS 3 Zrotation Yrotation Xrotation
								JOINT RightFingerBase
								{
									OFFSET 0.000000 0.000000 0.000000
									CHANNELS 3 Zrotation Yrotation Xrotation
									JOINT RightHandIndex1
									{
										OFFSET -0.622530 -0.000000 -0.000000
										CHANNELS 3 Zrotation Yrotation Xrotation
										End Site
										{
											OFFSET 0.000000 0.000000 0.000000
										}
									}
								}
								JOINT RThumb
								{
									OFFSET 0.000000 0.000000 0.000000
									CHANNELS 3 Zrotation Yrotation Xrotation
									End Site
									{
										OFFSET 0.000000 0.000000 0.000000
									}
								}
							}
						}
					}
				}
			}
		}
	}
}
MOTION
Frames: 11
Frame Time: 0.008333
2.680889 15.817127 0.457110 -179.529382 -81.846873 -137.060428 -8.745125 -0.359109 -2.389286 -21.366487 10.297139 -75.274419 -3.493633 5.258977 51.305806 3.138399 10.536267 -18.930099 -1.812601 -0.000000 -44.420500 8.578978 1.534730 0.672113 10.924478 -2.299470 -75.443439 2.848822 -5.412806 51.008600 -0.652746 1.154087 -13.698787 0.057500 0.000000 -66.638500 -0.638573 -3.458947 4.552618 -0.498218 -3.332344 -2.234686 -5.301274 -3.202234 -1.439419 10.847221 -16.478963 -9.406598 -1.645384 -0.060934 -1.013724 0.000000 0.000000 0.000000 13.046882 2.895732 0.256402 -79.422701 1.458111 3.252979 -179.931282 -59.881025 179.895841 10.448550 -0.468474 -0.098050 -0.202666 0.617893 -0.000000 0.000000 0.000000 0.000000 0.000000 0.000000 0.000000 0.356887 -11.837773 0.821161 75.990200 3.167203 25.374480 -179.615352 61.472066 179.828455 -18.858808 4.739008 -0.919649 0.485463 -0.676796 0.000000 0.000000 0.000000 0.000000 0.000000 0.000000 0.000000 
2.671998 15.832560 0.466412 -178.294124 -81.406983 -138.527602 -8.808487 -0.285111 -2.376689 -21.344581 10.705084 -75.023061 -3.522453 5.269345 51.133690 3.150127 10.610552 -18.956885 -1.828400 -0.000000 -44.406399 8.530271 1.532809 0.705496 11.030034 -2.180711 -74.999069 2.875376 -5.320328 50.649545 -0.595794 1.365993 -13.506911 0.047400 -0.000000 -66.728800 -0.299887 -3.525028 4.460713 -0.437624 -3.419592 -2.251516 -5.386566 -3.291734 -1.434410 11.017663 -16.627878 -9.377544 -1.646393 -0.061866 -0.997025 0.000000 0.000000 0.000000 13.254840 2.575545 0.198569 -79.089994 0.902092 2.551967 -179.940462 -60.536819 179.892942 10.757212 -0.222176 -0.076858 -0.209312 0.611224 -0.000000 0.000000 0.000000 0.000000 0.000000 0.000000 0.000000 0.553325 -12.079830 0.841748 75.977936 3.249887 25.468025 -179.626189 61.573507 179.829030 -18.830991 4.695020 -0.910358 0.484582 -0.674489 0.000000 0.000000 0.000000 0.000000 0.000000 0.000000 0.000000 
2.661942 15.850085 0.476236 -177.152890 -80.966867 -139.921787 -8.871391 -0.203725 -2.359015 -21.325495 11.129868 -74.735195 -3.555981 5.274230 50.919943 3.157373 10.668170 -18.968366 -1.839100 0.000000 -44.399200 8.484781 1.529482 0.745639 11.131761 -2.063834 -74.509228 2.901798 -5.219882 50.249976 -0.541784 1.561064 -13.299834 0.038100 -0.000000 -66.822400 0.066119 -3.592494 4.353172 -0.373164 -3.510812 -2.270096 -5.479037 -3.385434 -1.423513 11.178288 -16.779501 -9.351237 -1.645829 -0.062662 -0.980491 0.000000 0.000000 0.000000 13.503158 2.262554 0.138180 -78.621699 0.226827 1.855369 -179.946098 -61.232348 179.889576 11.109845 0.090122 -0.047767 -0.217764 0.603423 -0.000000 0.000000 0.000000 0.000000 0.000000 0.000000 0.000000 0.730490 -12.326400 0.861269 75.992158 3.341639 25.571728 -179.634160 61.675988 179.829586 -18.798454 4.656164 -0.901766 0.483312 -0.672451 -0.000000 0.000000 0.000000 0.000000 0.000000 0.000000 0.000000 
2.650898 15.869727 0.486509 -176.115019 -80.529329 -141.234553 -8.933586 -0.115939 -2.336425 -21.308082 11.565836 -74.407814 -3.593443 5.272673 50.663809 3.160949 10.713561 -18.963348 -1.844800 -0.000000 -44.398800 8.442727 1.524967 0.791790 11.226587 -1.951687 -73.975000 2.927751 -5.111981 49.810538 -0.490834 1.738379 -13.077513 0.029600 -0.000000 -66.920000 0.458544 -3.660870 4.231487 -0.305245 -3.605650 -2.289679 -5.579206 -3.482921 -1.405087 11.325710 -16.931013 -9.326602 -1.642970 -0.063278 -0.963880 0.000000 0.000000 0.000000 13.790454 1.966316 0.075757 -77.998987 -0.591459 1.171767 -179.945680 -61.978392 179.885931 11.482971 0.470369 -0.009575 -0.227411 0.594626 -0.000000 0.000000 0.000000 0.000000 0.000000 0.000000 0.000000 0.882365 -12.573926 0.878613 76.039498 3.434769 25.679920 -179.637596 61.777270 179.830137 -18.757873 4.625859 -0.894274 0.481372 -0.670761 0.000000 0.000000 0.000000 0.000000 0.000000 0.000000 0.000000 
2.638985 15.891411 0.496961 -175.198546 -80.096733 -142.447011 -8.994301 -0.022868 -2.309570 -21.294332 12.007667 -74.037681 -3.634291 5.263380 50.363760 3.161545 10.750785 -18.940021 -1.845700 0.000000 -44.404701 8.404984 1.519061 0.844149 11.308472 -1.846864 -73.399518 2.952712 -4.997492 49.332972 -0.443132 1.897082 -12.841256 0.021800 -0.000000 -67.020600 0.869540 -3.730352 4.096279 -0.235572 -3.704072 -2.309756 -5.686840 -3.584185 -1.377937 11.462196 -17.083899 -9.302573 -1.637643 -0.063716 -0.946891 0.000000 0.000000 0.000000 14.122721 1.686826 0.011263 -77.216199 -1.563538 0.492534 -179.938123 -62.777755 179.882367 11.833332 0.906969 0.037112 -0.236908 0.585336 -0.000000 0.000000 0.000000 0.000000 0.000000 0.000000 0.000000 1.012701 -12.823724 0.893672 76.115121 3.527951 25.793911 -179.636627 61.875787 179.830648 -18.715018 4.600420 -0.887682 0.478994 -0.669305 0.000000 0.000000 0.000000 0.000000 0.000000 0.000000 0.000000 
2.626561 15.915106 0.507770 -174.398073 -79.671609 -143.565890 -9.054186 0.074216 -2.278214 -21.279132 12.448080 -73.621538 -3.677043 5.245665 50.020680 3.160569 10.787232 -18.897463 -1.842300 0.000000 -44.418600 8.370921 1.512369 0.900568 11.376803 -1.752897 -72.782824 2.976511 -4.876897 48.818631 -0.398416 2.037697 -12.589997 0.014700 0.000000 -67.127600 1.302309 -3.799142 3.950367 -0.163931 -3.804512 -2.329154 -5.803271 -3.687537 -1.339761 11.579924 -17.232513 -9.277992 -1.628260 -0.063865 -0.929324 0.000000 0.000000 0.000000 14.485382 1.442601 -0.053407 -76.241502 -2.728320 -0.168021 -179.920813 -63.651635 179.878966 12.147423 1.401860 0.092794 -0.246166 0.575682 -0.000000 0.000000 0.000000 0.000000 0.000000 0.000000 0.000000 1.107382 -13.068573 0.904332 76.234801 3.606612 25.899083 -179.628007 61.969411 179.831177 -18.658441 4.591265 -0.883095 0.475415 -0.668366 0.000000 0.000000 0.000000 0.000000 0.000000 0.000000 0.000000 
2.613613 15.940654 0.518332 -173.748257 -79.256048 -144.552773 -9.111688 0.173885 -2.243820 -21.270459 12.881862 -73.158331 -3.721583 5.218017 49.632969 3.158389 10.825261 -18.833877 -1.834700 0.000000 -44.436900 8.342145 1.503814 0.962821 11.421636 -1.671088 -72.133620 2.998398 -4.751822 48.271489 -0.356864 2.160096 -12.326775 0.008200 0.000000 -67.235899 1.734972 -3.869013 3.792784 -0.094893 -3.907739 -2.348043 -5.927964 -3.793883 -1.291280 11.693887 -17.384846 -9.251728 -1.615792 -0.063823 -0.910731 0.000000 0.000000 0.000000 14.896006 1.211857 -0.118332 -75.091474 -4.062360 -0.856473 -179.896540 -64.595920 179.876332 12.360097 1.917739 0.152266 -0.252885 0.566689 -0.000000 0.000000 0.000000 0.000000 0.000000 0.000000 0.000000 1.190775 -13.317199 0.912409 76.373478 3.681700 26.009437 -179.615326 62.054240 179.831608 -18.608013 4.581822 -0.878806 0.471783 -0.667516 0.000000 0.000000 0.000000 0.000000 0.000000 0.000000 0.000000 
2.600625 15.968000 0.528898 -173.231582 -78.851083 -145.427205 -9.167885 0.274757 -2.206330 -21.261325 13.302949 -72.645713 -3.766146 5.180306 49.203334 3.156595 10.873087 -18.749241 -1.823700 0.000000 -44.462301 8.317502 1.494306 1.028193 11.443779 -1.603628 -71.451106 3.018227 -4.622531 47.692828 -0.318093 2.265248 -12.049842 0.002300 0.000000 -67.350299 2.172932 -3.937099 3.627314 -0.027880 -4.011037 -2.364830 -6.062435 -3.900340 -1.229486 11.794359 -17.534494 -9.224203 -1.597847 -0.063386 -0.891424 0.000000 0.000000 0.000000 15.326340 1.020985 -0.179813 -73.722047 -5.613959 -1.555783 -179.864776 -65.643366 179.874282 12.486926 2.459747 0.215230 -0.257891 0.558302 0.000000 0.000000 0.000000 0.000000 0.000000 0.000000 0.000000 1.245818 -13.561471 0.915050 76.550103 3.736981 26.106065 -179.594976 62.133045 179.832048 -18.547174 4.588236 -0.876821 0.467036 -0.667114 0.000000 0.000000 0.000000 0.000000 0.000000 0.000000 0.000000 
2.587671 15.997002 0.539099 -172.863224 -78.457729 -146.171004 -9.221892 0.375341 -2.167121 -21.256717 13.707747 -72.084550 -3.810427 5.131749 48.731580 3.155519 10.932722 -18.642520 -1.809300 -0.000000 -44.491100 8.297673 1.483038 1.097571 11.437029 -1.549973 -70.743104 3.035555 -4.490359 47.086084 -0.282061 2.353966 -11.761567 -0.003300 -0.000000 -67.466200 2.597284 -4.004512 3.454004 0.033112 -4.114430 -2.379722 -6.206401 -4.007044 -1.156098 11.895544 -17.687095 -9.195042 -1.574995 -0.062610 -0.871190 0.000000 0.000000 0.000000 15.782781 0.848848 -0.235888 -72.141676 -7.354068 -2.316303 -179.831138 -66.798127 179.873156 12.497395 2.995272 0.276085 -0.259852 0.551245 0.000000 0.000000 0.000000 0.000000 0.000000 0.000000 0.000000 1.294148 -13.807254 0.913654 76.742200 3.781222 26.199012 -179.570153 62.200358 179.832411 -18.490319 4.598598 -0.875636 0.462096 -0.666866 0.000000 0.000000 0.000000 0.000000 0.000000 0.000000 0.000000 
2.574882 16.027412 0.548717 -172.651031 -78.075621 -146.772726 -9.273563 0.474520 -2.127067 -21.259574 14.091902 -71.476247 -3.853832 5.071981 48.218879 3.156023 11.008305 -18.514065 -1.792100 0.000000 -44.520400 8.282690 1.469747 1.171129 11.396840 -1.509636 -70.016783 3.050004 -4.356432 46.455025 -0.248542 2.427646 -11.463152 -0.008500 -0.000001 -67.583000 2.995513 -4.071223 3.273508 0.085430 -4.216995 -2.392942 -6.359424 -4.113160 -1.073217 12.004090 -17.844616 -9.164266 -1.546990 -0.061478 -0.850008 0.000000 0.000000 0.000000 16.258600 0.680880 -0.283588 -70.340345 -9.262428 -3.173022 -179.801755 -68.071642 179.872941 12.400569 3.511835 0.331728 -0.258669 0.545665 0.000000 0.000000 0.000000 0.000000 0.000000 0.000000 0.000000 1.346075 -14.055901 0.909035 76.938864 3.813318 26.287739 -179.542436 62.257125 179.832699 -18.439928 4.610215 -0.874952 0.457186 -0.666667 0.000000 0.000000 0.000000 0.000000 0.000000 0.000000 0.000000 
2.562667 16.059133 0.558113 -172.554495 -77.702798 -147.272340 -9.323543 0.570856 -2.086934 -21.261627 14.454933 -70.823442 -3.894965 5.002139 47.670717 3.158991 11.104284 -18.365372 -1.772700 0.000001 -44.551701 8.271539 1.455302 1.246193 11.327612 -1.479504 -69.270367 3.061543 -4.220679 45.800092 -0.217349 2.486390 -11.152323 -0.013600 0.000000 -67.704000 3.373900 -4.134465 3.091088 0.130139 -4.315809 -2.402069 -6.522066 -4.215464 -0.976353 12.114690 -18.002292 -9.137104 -1.510557 -0.059624 -0.829711 0.000000 0.000000 0.000000 16.713587 0.556641 -0.316845 -68.268309 -11.388774 -4.107288 -179.780832 -69.513946 179.872960 12.265296 4.029628 0.385366 -0.256230 0.541034 0.000000 0.000000 0.000000 0.000000 0.000000 0.000000 0.000000 1.388053 -14.302604 0.897067 77.154023 3.827757 26.359768 -179.508970 62.304150 179.833012 -18.381735 4.636809 -0.876374 0.451458 -0.666797 0.000000 0.000000 0.000000 0.000000 0.000000 0.000000 0.000000 
